<?xml version="1.0" encoding="UTF-8" standalone="no"?>
<!-- Created with Inkscape (http://www.inkscape.org/) -->

<svg
   width="1280"
   height="640"
   viewBox="0 0 338.66666 169.33333"
   version="1.1"
   id="svg1"
   xml:space="preserve"
   inkscape:export-filename="banner.png"
   inkscape:export-xdpi="96"
   inkscape:export-ydpi="96"
   inkscape:version="1.4.2 (ebf0e940d0, 2025-05-08)"
   sodipodi:docname="banner.svg"
   xmlns:inkscape="http://www.inkscape.org/namespaces/inkscape"
   xmlns:sodipodi="http://sodipodi.sourceforge.net/DTD/sodipodi-0.dtd"
   xmlns="http://www.w3.org/2000/svg"
   xmlns:svg="http://www.w3.org/2000/svg"><sodipodi:namedview
     id="namedview1"
     pagecolor="#ffffff"
     bordercolor="#000000"
     borderopacity="0.25"
     inkscape:showpageshadow="2"
     inkscape:pageopacity="0.0"
     inkscape:pagecheckerboard="0"
     inkscape:deskcolor="#d1d1d1"
     inkscape:document-units="px"
     showgrid="true"
     showguides="false"
     inkscape:zoom="0.31335338"
     inkscape:cx="402.10194"
     inkscape:cy="542.51849"
     inkscape:window-width="1536"
     inkscape:window-height="783"
     inkscape:window-x="0"
     inkscape:window-y="0"
     inkscape:window-maximized="1"
     inkscape:current-layer="layer1"><inkscape:grid
       id="grid1"
       units="pt"
       originx="0"
       originy="0"
       spacingx="0.35277777"
       spacingy="0.35277777"
       empcolor="#0099e5"
       empopacity="0.30196078"
       color="#0099e5"
       opacity="0.14901961"
       empspacing="5"
       enabled="true"
       visible="true" /></sodipodi:namedview><defs
     id="defs1"><inkscape:path-effect
       effect="powerclip"
       message=""
       id="path-effect20"
       is_visible="true"
       lpeversion="1"
       inverse="true"
       flatten="false"
       hide_clip="false" /><inkscape:path-effect
       effect="powerclip"
       message=""
       id="path-effect16"
       is_visible="true"
       lpeversion="1"
       inverse="true"
       flatten="false"
       hide_clip="false" /><inkscape:path-effect
       effect="bspline"
       id="path-effect9"
       is_visible="true"
       lpeversion="1.3"
       weight="33.333333"
       steps="2"
       helper_size="0"
       apply_no_weight="true"
       apply_with_weight="true"
       only_selected="false"
       uniform="false" /><inkscape:path-effect
       effect="bspline"
       id="path-effect6"
       is_visible="true"
       lpeversion="1.3"
       weight="33.333333"
       steps="2"
       helper_size="0"
       apply_no_weight="true"
       apply_with_weight="true"
       only_selected="false"
       uniform="false" /><inkscape:path-effect
       effect="bspline"
       id="path-effect9-7"
       is_visible="true"
       lpeversion="1.3"
       weight="33.333333"
       steps="2"
       helper_size="0"
       apply_no_weight="true"
       apply_with_weight="true"
       only_selected="false"
       uniform="false" /><clipPath
       clipPathUnits="userSpaceOnUse"
       id="clipPath16"><path
         id="path16"
         style="display:block;fill:#0000ff;fill-opacity:1;stroke:#0000ff;stroke-width:0.0467162;stroke-linecap:square;stroke-linejoin:miter;stroke-dasharray:none;stroke-opacity:1"
         d="M 8.1337269,7.5193762 V 7.0498338 H 8.6446656 V 6.9161665 H 8.1337269 V 6.4455736 H 7.9843486 V 6.9161665 H 7.4446494 v 0.1336673 h 0.5396992 v 0.4695424 z" /></clipPath><clipPath
       clipPathUnits="userSpaceOnUse"
       id="clipPath20"><path
         id="path20"
         style="display:block;fill:none;fill-opacity:1;stroke:#0000ff;stroke-width:0.176653;stroke-linecap:butt;stroke-linejoin:bevel;stroke-dasharray:none;stroke-opacity:1"
         d="M 8.1655765,7.5537052 A 0.24900834,0.20724844 0 0 1 7.9165924,7.3464769 0.24900834,0.20724844 0 0 1 8.1655765,7.1392485 0.24900834,0.20724844 0 0 1 8.4145601,7.3464769 0.24900834,0.20724844 0 0 1 8.1655765,7.5537052 Z M 7.6561979,7.1526436 A 0.24900834,0.20724844 0 0 1 7.407214,6.9454153 0.24900834,0.20724844 0 0 1 7.6561979,6.738187 0.24900834,0.20724844 0 0 1 7.905182,6.9454153 0.24900834,0.20724844 0 0 1 7.6561979,7.1526436 Z m 1.0325085,0 A 0.24900834,0.20724844 0 0 1 8.439722,6.9454153 0.24900834,0.20724844 0 0 1 8.6887064,6.738187 0.24900834,0.20724844 0 0 1 8.93769,6.9454153 0.24900834,0.20724844 0 0 1 8.6887064,7.1526436 Z M 8.1655765,6.7376616 A 0.24900834,0.20724844 0 0 1 7.9165924,6.5304334 0.24900834,0.20724844 0 0 1 8.1655765,6.3232051 0.24900834,0.20724844 0 0 1 8.4145601,6.5304334 0.24900834,0.20724844 0 0 1 8.1655765,6.7376616 Z" /></clipPath><inkscape:path-effect
       effect="powerclip"
       message=""
       id="path-effect20-0"
       is_visible="true"
       lpeversion="1"
       inverse="true"
       flatten="false"
       hide_clip="false" /><inkscape:path-effect
       effect="powerclip"
       message=""
       id="path-effect16-9"
       is_visible="true"
       lpeversion="1"
       inverse="true"
       flatten="false"
       hide_clip="false" /><inkscape:path-effect
       effect="bspline"
       id="path-effect9-3"
       is_visible="true"
       lpeversion="1.3"
       weight="33.333333"
       steps="2"
       helper_size="0"
       apply_no_weight="true"
       apply_with_weight="true"
       only_selected="false"
       uniform="false" /><inkscape:path-effect
       effect="bspline"
       id="path-effect6-6"
       is_visible="true"
       lpeversion="1.3"
       weight="33.333333"
       steps="2"
       helper_size="0"
       apply_no_weight="true"
       apply_with_weight="true"
       only_selected="false"
       uniform="false" /><inkscape:path-effect
       effect="bspline"
       id="path-effect9-7-0"
       is_visible="true"
       lpeversion="1.3"
       weight="33.333333"
       steps="2"
       helper_size="0"
       apply_no_weight="true"
       apply_with_weight="true"
       only_selected="false"
       uniform="false" /><clipPath
       clipPathUnits="userSpaceOnUse"
       id="clipPath16-6"><path
         id="path16-2"
         style="display:none;fill:#0000ff;fill-opacity:1;stroke:#0000ff;stroke-width:0.0467162;stroke-linecap:square;stroke-linejoin:miter;stroke-dasharray:none;stroke-opacity:1"
         d="M 8.1337269,7.5193762 V 7.0498338 H 8.6446656 V 6.9161665 H 8.1337269 V 6.4455736 H 7.9843486 V 6.9161665 H 7.4446494 v 0.1336673 h 0.5396992 v 0.4695424 z" /><path
         id="lpe_path-effect16"
         style="fill:#0000ff;fill-opacity:1;stroke:#0000ff;stroke-width:0.0467162;stroke-linecap:square;stroke-linejoin:miter;stroke-dasharray:none;stroke-opacity:1"
         class="powerclip"
         d="M 1.365474,0.52965501 H 14.763588 V 13.090001 H 1.365474 Z M 8.1337269,7.5193762 V 7.0498338 H 8.6446656 V 6.9161665 H 8.1337269 V 6.4455736 H 7.9843486 V 6.9161665 H 7.4446494 v 0.1336673 h 0.5396992 v 0.4695424 z" /></clipPath><clipPath
       clipPathUnits="userSpaceOnUse"
       id="clipPath20-6"><path
         id="path20-1"
         style="display:none;fill:none;fill-opacity:1;stroke:#0000ff;stroke-width:0.176653;stroke-linecap:butt;stroke-linejoin:bevel;stroke-dasharray:none;stroke-opacity:1"
         d="M 8.1655765,7.5537052 A 0.24900834,0.20724844 0 0 1 7.9165924,7.3464769 0.24900834,0.20724844 0 0 1 8.1655765,7.1392485 0.24900834,0.20724844 0 0 1 8.4145601,7.3464769 0.24900834,0.20724844 0 0 1 8.1655765,7.5537052 Z M 7.6561979,7.1526436 A 0.24900834,0.20724844 0 0 1 7.407214,6.9454153 0.24900834,0.20724844 0 0 1 7.6561979,6.738187 0.24900834,0.20724844 0 0 1 7.905182,6.9454153 0.24900834,0.20724844 0 0 1 7.6561979,7.1526436 Z m 1.0325085,0 A 0.24900834,0.20724844 0 0 1 8.439722,6.9454153 0.24900834,0.20724844 0 0 1 8.6887064,6.738187 0.24900834,0.20724844 0 0 1 8.93769,6.9454153 0.24900834,0.20724844 0 0 1 8.6887064,7.1526436 Z M 8.1655765,6.7376616 A 0.24900834,0.20724844 0 0 1 7.9165924,6.5304334 0.24900834,0.20724844 0 0 1 8.1655765,6.3232051 0.24900834,0.20724844 0 0 1 8.4145601,6.5304334 0.24900834,0.20724844 0 0 1 8.1655765,6.7376616 Z" /><path
         id="lpe_path-effect20"
         style="fill:none;fill-opacity:1;stroke:#0000ff;stroke-width:0.176653;stroke-linecap:butt;stroke-linejoin:bevel;stroke-dasharray:none;stroke-opacity:1"
         class="powerclip"
         d="M 1.365474,0.52965501 H 14.763588 V 13.090001 H 1.365474 Z M 8.1655765,7.5537052 A 0.24900834,0.20724844 0 0 0 8.4145601,7.3464769 0.24900834,0.20724844 0 0 0 8.1655765,7.1392485 0.24900834,0.20724844 0 0 0 7.9165924,7.3464769 0.24900834,0.20724844 0 0 0 8.1655765,7.5537052 Z M 7.6561979,7.1526436 A 0.24900834,0.20724844 0 0 0 7.905182,6.9454153 0.24900834,0.20724844 0 0 0 7.6561979,6.738187 0.24900834,0.20724844 0 0 0 7.407214,6.9454153 0.24900834,0.20724844 0 0 0 7.6561979,7.1526436 Z m 1.0325085,0 A 0.24900834,0.20724844 0 0 0 8.93769,6.9454153 0.24900834,0.20724844 0 0 0 8.6887064,6.738187 0.24900834,0.20724844 0 0 0 8.439722,6.9454153 0.24900834,0.20724844 0 0 0 8.6887064,7.1526436 Z M 8.1655765,6.7376616 A 0.24900834,0.20724844 0 0 0 8.4145601,6.5304334 0.24900834,0.20724844 0 0 0 8.1655765,6.3232051 0.24900834,0.20724844 0 0 0 7.9165924,6.5304334 0.24900834,0.20724844 0 0 0 8.1655765,6.7376616 Z" /></clipPath><clipPath
       clipPathUnits="userSpaceOnUse"
       id="clipath_lpe_path-effect20-0"><path
         id="path2"
         style="display:none;fill:none;fill-opacity:1;stroke:#0000ff;stroke-width:0.176653;stroke-linecap:butt;stroke-linejoin:bevel;stroke-dasharray:none;stroke-opacity:1"
         d="M 8.1655765,7.5537052 A 0.24900834,0.20724844 0 0 1 7.9165924,7.3464769 0.24900834,0.20724844 0 0 1 8.1655765,7.1392485 0.24900834,0.20724844 0 0 1 8.4145601,7.3464769 0.24900834,0.20724844 0 0 1 8.1655765,7.5537052 Z M 7.6561979,7.1526436 A 0.24900834,0.20724844 0 0 1 7.407214,6.9454153 0.24900834,0.20724844 0 0 1 7.6561979,6.738187 0.24900834,0.20724844 0 0 1 7.905182,6.9454153 0.24900834,0.20724844 0 0 1 7.6561979,7.1526436 Z m 1.0325085,0 A 0.24900834,0.20724844 0 0 1 8.439722,6.9454153 0.24900834,0.20724844 0 0 1 8.6887064,6.738187 0.24900834,0.20724844 0 0 1 8.93769,6.9454153 0.24900834,0.20724844 0 0 1 8.6887064,7.1526436 Z M 8.1655765,6.7376616 A 0.24900834,0.20724844 0 0 1 7.9165924,6.5304334 0.24900834,0.20724844 0 0 1 8.1655765,6.3232051 0.24900834,0.20724844 0 0 1 8.4145601,6.5304334 0.24900834,0.20724844 0 0 1 8.1655765,6.7376616 Z" /><path
         id="lpe_path-effect20-0"
         style="fill:none;fill-opacity:1;stroke:#0000ff;stroke-width:0.176653;stroke-linecap:butt;stroke-linejoin:bevel;stroke-dasharray:none;stroke-opacity:1"
         class="powerclip"
         d="M 1.365474,0.52965501 H 14.763588 V 13.090001 H 1.365474 Z M 8.1655765,7.5537052 A 0.24900834,0.20724844 0 0 0 8.4145601,7.3464769 0.24900834,0.20724844 0 0 0 8.1655765,7.1392485 0.24900834,0.20724844 0 0 0 7.9165924,7.3464769 0.24900834,0.20724844 0 0 0 8.1655765,7.5537052 Z M 7.6561979,7.1526436 A 0.24900834,0.20724844 0 0 0 7.905182,6.9454153 0.24900834,0.20724844 0 0 0 7.6561979,6.738187 0.24900834,0.20724844 0 0 0 7.407214,6.9454153 0.24900834,0.20724844 0 0 0 7.6561979,7.1526436 Z m 1.0325085,0 A 0.24900834,0.20724844 0 0 0 8.93769,6.9454153 0.24900834,0.20724844 0 0 0 8.6887064,6.738187 0.24900834,0.20724844 0 0 0 8.439722,6.9454153 0.24900834,0.20724844 0 0 0 8.6887064,7.1526436 Z M 8.1655765,6.7376616 A 0.24900834,0.20724844 0 0 0 8.4145601,6.5304334 0.24900834,0.20724844 0 0 0 8.1655765,6.3232051 0.24900834,0.20724844 0 0 0 7.9165924,6.5304334 0.24900834,0.20724844 0 0 0 8.1655765,6.7376616 Z" /></clipPath><clipPath
       clipPathUnits="userSpaceOnUse"
       id="clipath_lpe_path-effect16-9"><path
         id="path3"
         style="display:none;fill:#0000ff;fill-opacity:1;stroke:#0000ff;stroke-width:0.0467162;stroke-linecap:square;stroke-linejoin:miter;stroke-dasharray:none;stroke-opacity:1"
         d="M 8.1337269,7.5193762 V 7.0498338 H 8.6446656 V 6.9161665 H 8.1337269 V 6.4455736 H 7.9843486 V 6.9161665 H 7.4446494 v 0.1336673 h 0.5396992 v 0.4695424 z" /><path
         id="lpe_path-effect16-9"
         style="fill:#0000ff;fill-opacity:1;stroke:#0000ff;stroke-width:0.0467162;stroke-linecap:square;stroke-linejoin:miter;stroke-dasharray:none;stroke-opacity:1"
         class="powerclip"
         d="M 1.365474,0.52965501 H 14.763588 V 13.090001 H 1.365474 Z M 8.1337269,7.5193762 V 7.0498338 H 8.6446656 V 6.9161665 H 8.1337269 V 6.4455736 H 7.9843486 V 6.9161665 H 7.4446494 v 0.1336673 h 0.5396992 v 0.4695424 z" /></clipPath></defs><g
     inkscape:label="Layer 1"
     inkscape:groupmode="layer"
     id="layer1"><rect
       style="fill:#33353a;stroke:none;stroke-width:9.882;stroke-linecap:square;fill-opacity:1"
       id="rect1"
       width="338.66666"
       height="169.33333"
       x="0"
       y="0" /><circle
       style="fill:#284777;fill-opacity:1;stroke:none;stroke-width:10.4224;stroke-linecap:square"
       id="path1"
       cx="169.33333"
       cy="84.666664"
       r="29.765625" /><g
       inkscape:label="Layer 1"
       id="layer1-8"
       transform="matrix(3.4510863,0,0,3.4510863,147.41893,62.858553)"><path
         style="fill:#aac7ff;fill-opacity:1;stroke:#aac7ff;stroke-width:0.18;stroke-linecap:butt;stroke-linejoin:bevel;stroke-dasharray:none;stroke-opacity:1"
         d="m 7.2377302,5.9262022 c -0.5710636,0.4120092 -0.904397,1.2429034 -0.7377238,1.6583505 0.1666733,0.4154471 0.8333267,0.4154471 1.5,0.4154471 0.6666733,0 1.3333267,0 1.5710551,-0.4120175 C 9.80879,7.1759648 9.6175879,6.3519626 9.1175799,5.9365155 8.6175719,5.5210683 7.8087939,5.5141929 7.2377302,5.9262022 Z"
         id="path9"
         inkscape:path-effect="#path-effect9-3;#path-effect20-0"
         inkscape:original-d="m 6.9999999,5.5073174 c -0.3333334,0.830894 -0.6666666,1.6617883 -1.0000001,2.4926824 0.6666799,0 1.3333333,0 2,0 0.6666799,0 1.3333333,0 1.9999999,0 C 9.8087901,7.1759648 9.6175879,6.3519626 9.426382,5.527944 8.6175719,5.5210675 7.8087939,5.5141936 6.9999999,5.5073174 Z"
         transform="matrix(1.7519116,0,0,-1.9515603,-4.429942,19.60862)"
         clip-path="url(#clipath_lpe_path-effect20-0)" /><path
         style="fill:#aac7ff;fill-opacity:1;stroke:#aac7ff;stroke-width:0.18;stroke-linecap:butt;stroke-linejoin:bevel;stroke-dasharray:none;stroke-opacity:1"
         d="m 7.2377302,5.9262022 c -0.5710636,0.4120092 -0.904397,1.2429034 -0.7377238,1.6583505 0.1666733,0.4154471 0.8333267,0.4154471 1.5,0.4154471 0.6666733,0 1.3333267,0 1.5710551,-0.4120175 C 9.80879,7.1759648 9.6175879,6.3519626 9.1175799,5.9365155 8.6175719,5.5210683 7.8087939,5.5141929 7.2377302,5.9262022 Z"
         id="path9-5"
         transform="matrix(-1.7465621,0,0,-1.951851,17.077713,19.610958)"
         sodipodi:nodetypes="ccsccc"
         inkscape:original-d="m 6.9999999,5.5073174 c -0.3333334,0.830894 -0.6666666,1.6617883 -1.0000001,2.4926824 0.6666799,0 1.3333333,0 2,0 0.6666799,0 1.3333333,0 1.9999999,0 C 9.8087901,7.1759648 9.6175879,6.3519626 9.426382,5.527944 8.6175719,5.5210675 7.8087939,5.5141936 6.9999999,5.5073174 Z"
         inkscape:path-effect="#path-effect9-7-0;#path-effect16-9"
         clip-path="url(#clipath_lpe_path-effect16-9)" /><path
         style="fill:none;stroke:#aac7ff;stroke-width:0.326638;stroke-linecap:butt;stroke-linejoin:bevel;stroke-dasharray:none;stroke-opacity:1"
         d="m 5.7250483,4.807043 c 0,0 0.7054292,-0.9207111 1.2324525,-1.417e-4"
         id="path10" /></g></g></svg>
